<?xml version="1.0" encoding="utf-8"?>
<!-- Generator: Adobe Illustrator 19.0.0, SVG Export Plug-In . SVG Version: 6.00 Build 0)  -->
<svg version="1.1" id="svg2" xmlns:svg="http://www.w3.org/2000/svg"
	 xmlns="http://www.w3.org/2000/svg" xmlns:xlink="http://www.w3.org/1999/xlink" x="0px" y="0px" viewBox="300 0 500 500"
	 style="enable-background:new 300 0 500 500;" xml:space="preserve">
<style type="text/css">
	.st0{fill:#FFFFFF;}
	.st1{fill:#010101;}
	.st2{fill:#FEFEFE;}
</style>
<g>
	<path id="path1984" class="st0" d="M548.2,140.5c59.2,0,118.4,0,177.5,0c0,59.1,0,118.3,0,177.4c-59.2,0-118.4,0-177.5,0
		C548.2,258.8,548.2,199.7,548.2,140.5z"/>
	<path id="path6" class="st1" d="M370.7,140.6c59.2,0,118.4,0,177.5,0c0,59.1,0,118.3,0,177.4c-59.2,0-118.4,0-177.5,0
		C370.7,258.8,370.7,199.7,370.7,140.6z"/>
	<path id="path8" class="st2" d="M445.5,152.4c21.8-5.6,45.9-1,64.3,12c9.6,6.7,17.6,15.5,23.5,25.7c-12.5,7-24.9,14.2-37.3,21.3
		c-2.2,1.3-4.5,2.5-6.7,3.9c-3.4-5.9-9-10.6-15.4-12.8c-4.3-1.6-9.1-1.8-13.7-1.2c-13.2,1.7-24.3,14-24.1,27.5
		c-0.6,11.8,7.3,23.3,18.3,27.3c8.2,3.2,17.9,2.2,25.3-2.5c4-2.5,7.2-6,9.7-10c8.4,5,16.9,9.7,25.3,14.6c6.2,3.5,12.4,7.2,18.7,10.6
		c-10.4,18.2-28.2,32-48.6,37.3c-2.5,0.8-5.2,1.1-7.7,1.7c-5.9,0.7-11.9,1.3-17.8,0.7c-18-1-35.4-8.7-48.6-20.9
		c-13.7-12.6-22.7-30.1-24.8-48.6c-2.4-18.4,2.3-37.6,12.5-53.1C409.1,169.2,426.3,157,445.5,152.4z"/>
	<path id="path10" class="st1" d="M560.8,153.3c16.9,0,33.8,0,50.7,0c17.1,21,33.8,42.3,50.8,63.4c0-21.1,0-42.2,0-63.4
		c16.9,0,33.8,0,50.7,0c0,50.7,0,101.4,0,152.1c-16.9,0-33.9,0-50.8,0c-16.6-20.7-33.2-41.4-49.7-62.1c-0.3-0.4-0.7-0.7-1-1.1
		c0.1,21.1,0,42.1,0,63.2c-16.9,0-33.9,0-50.8,0C560.8,254.7,560.8,204,560.8,153.3z"/>
	<path id="path12" class="st1" d="M376.6,341.6c-0.2-4.9,3.4-9.7,8.2-10.9c4.8-1.6,10.4,0.9,12.9,5.2c-1.9,1.3-4,2.2-5.8,3.5
		c-0.9-1-1.8-2.1-3.2-2.3c-2.3-0.4-4.8,1.2-5.1,3.6c-0.4,1.2,0.2,2.3,0.5,3.4c1.9,2.6,6.1,2.4,7.8-0.3c1.9,1.2,3.9,2.3,5.9,3.5
		c-2.1,3.4-6,5.9-10.1,5.5C381.7,353,376.3,347.5,376.6,341.6z"/>
	<path id="path20" class="st1" d="M699.1,330.7c2.4,0,4.9,0,7.3,0c0,2.3,0,4.6,0,6.9c1.9-2.2,3.5-4.7,5.4-6.9c3.1,0,6.3,0,9.4,0
		c-2.9,3.4-5.6,7-8.5,10.4c2.9,3.7,5.7,7.6,8.6,11.3c-3.1,0.1-6.3,0-9.4,0c-1.8-2.7-3.6-5.4-5.4-8.1c0,2.7,0,5.4,0,8.1
		c-2.4,0-4.9,0-7.3,0C699.1,345.2,699.1,338,699.1,330.7z"/>
	<path id="path26" class="st1" d="M447.3,337.1c0-2.1,0-4.2,0-6.4c7.3,0,14.6,0,21.8,0c0,2.1,0,4.2,0,6.3c-2.3,0-4.5,0-6.8,0
		c0,5.1,0,10.3,0,15.5c-2.7,0-5.4,0-8.1,0c0-5.1,0-10.3,0-15.4C451.9,337,449.6,337,447.3,337.1z"/>
	<path id="path28" class="st1" d="M519.3,352.5c0-7.3,0-14.5,0-21.8c2.4,0,4.8-0.1,7.2,0c2.6,2.8,4.8,6,7.3,8.9
		c-0.1-3,0-5.9-0.1-8.9c2.4,0,4.9,0,7.3,0c0,7.3,0,14.5,0,21.8c-2.4,0-4.7,0-7.1,0c-2.5-3-4.9-6.1-7.3-9.1c-0.1,3,0,6.1,0,9.1
		C524.1,352.5,521.7,352.5,519.3,352.5z"/>
	<path id="path30" class="st1" d="M555.5,330.7c2.5,0,4.9,0,7.4,0c2.4,3,4.7,6,7.2,8.9c0-3,0-6,0-8.9c2.4,0,4.8,0,7.2,0
		c0,7.2,0,14.5,0,21.8c-2.4,0-4.8,0-7.2,0c-2.5-2.9-4.8-5.9-7.2-8.9c-0.1,3,0,5.9,0,8.9c-2.5,0-5,0-7.5,0
		C555.5,345.2,555.5,338,555.5,330.7z"/>
	<path id="path32" class="st1" d="M580.3,330.7c6.3,0,12.7,0,19,0c0,2.1,0,4.2,0,6.3c-3.9,0-7.8,0-11.7,0c0,0.5,0,1.4,0,1.9
		c3.3,0,6.7,0,10,0c0,1.8,0,3.6,0,5.5c-3.3,0-6.7,0-10,0c0,0.7,0,1.5,0,2.2c3.9,0,7.8,0,11.7,0c0,2,0,3.9,0,5.9c-6.3,0-12.7,0-19,0
		C580.3,345.2,580.3,338,580.3,330.7z"/>
	<path id="path34" class="st1" d="M601.7,337c0-2.1,0-4.2,0-6.3c7.3,0,14.5,0,21.8,0c0,2.1,0,4.2,0,6.3c-2.3,0-4.6,0-6.8,0
		c0,5.1,0,10.3,0,15.4c-2.7,0-5.5,0-8.2,0c0-5.1,0-10.3,0-15.4C606.3,337,604,337,601.7,337z"/>
	<path id="path36" class="st1" d="M625.2,330.7c2.4,0,4.9,0,7.3,0c0.8,3.1,1,6.3,1.8,9.3c1.2-2.9,2.4-5.8,3.5-8.7
		c1.4,2.9,2.3,5.9,3.8,8.8c0.2-3.2,1.3-6.2,1.6-9.4c2.4,0,4.9,0,7.3,0c-1.2,7.3-2.8,14.5-4,21.7c-2,0-4,0-6,0
		c-1-1.9-1.7-3.9-2.7-5.9c-0.8,1.9-1.7,3.9-2.5,5.8c-2,0-4,0-6,0C627.9,345.2,626.7,338,625.2,330.7z"/>
	<path class="st1" d="M419.9,343.9c-1.5-4.4-2.6-8.9-4.3-13.2c-3.6,0.1-7.3,0-10.9,0c-2,7.3-4.6,14.5-6.7,21.8c2.6,0,5.1,0,7.7,0
		c0.4-1.2,0.8-2.5,1.2-3.7c2.2,0,4.5,0,6.7,0c0.5,1.2,0.7,2.5,1.1,3.7c2.6,0,5.3,0,7.9,0C421.5,349.7,421,346.7,419.9,343.9z
		 M408.4,343.3c0.9-2.1,1.1-4.5,2.1-6.6c0.2,2.3,1.3,4.3,1.7,6.6C410.9,343.3,409.6,343.3,408.4,343.3z"/>
	<path class="st1" d="M441.2,345.3c1.9-1.1,3.5-2.8,4-4.9c1.4-4.4-2.3-9.5-7-9.6c-4.6-0.1-9.1,0-13.7,0c0,7.3,0,14.5,0,21.8
		c2.4,0,4.9,0,7.3,0c0-2.1,0-4.2,0-6.4c0.7,0,1.5,0,2.2-0.1c1.2,2.1,2.1,4.3,3.4,6.4c2.7,0,5.4,0,8.1,0
		C444.1,350.1,442.8,347.6,441.2,345.3z M436.9,340.6c-1.7,0.1-3.4,0-5,0c0-1.2,0-2.4,0-3.6c1.8,0,3.6-0.1,5.4,0.1
		C438.6,338,438.5,340.1,436.9,340.6z"/>
	<path class="st1" d="M692.7,345.1c2.5-1.3,4.4-4,4.2-7c0.1-3.1-2.2-5.9-5-7c-1.9-0.6-3.8-0.4-5.8-0.4c-3.3,0-6.7,0-10,0
		c0,7.3,0,14.5,0,21.8c2.4,0,4.8,0,7.3,0c0-2.1,0-4.3,0-6.4c0.7,0,1.5,0,2.3,0c1.1,2.1,2.2,4.3,3.3,6.4c2.7-0.1,5.4,0,8.1,0
		C695.5,350,694,347.6,692.7,345.1z M689.2,340.3c-1.9,0.7-3.9,0.3-5.8,0.4c0-1.2,0-2.4,0-3.7c1.7,0,3.5-0.1,5.2,0.1
		C689.9,337.6,689.6,339.2,689.2,340.3z"/>
	<path class="st1" d="M490.4,334.7c-2.5-3.4-7-5.2-11.1-4.3c-3.9,0.6-7.3,3.6-8.6,7.3c-0.9,3.1-0.8,6.7,0.9,9.6
		c1.5,2.5,3.9,4.4,6.7,5.2c3.4,0.6,7.2,0.4,10-1.9C493.2,347.1,494.2,339.4,490.4,334.7z M484.7,344.1c-1.5,1.6-4.1,2.2-5.8,0.7
		c-2.3-1.6-2-5.7,0.6-6.8c2-1.3,5,0,5.6,2.3C485.7,341.6,485.2,342.9,484.7,344.1z"/>
	<path class="st1" d="M516.8,338.9c-1.2-6.1-8.2-10.2-14.1-8.2c-6.2,1.5-10,8.9-7.6,14.8c1.3,3.5,4.5,6.4,8.3,7.1
		c2.4,0.2,5.1,0.4,7.3-0.8C515.5,349.6,518.2,343.9,516.8,338.9z M509.1,344.2c-1,0.8-2.2,1.7-3.6,1.4c-3.3-0.1-5-4.8-2.4-7
		c2-2.1,5.9-1.1,6.6,1.7C510.3,341.7,509.6,343,509.1,344.2z"/>
	<path class="st1" d="M673.8,340.6c-0.2-6.9-7.9-12.1-14.3-9.9c-3.6,0.9-6.4,3.8-7.7,7.2c-0.7,2.3-0.7,4.8-0.1,7.1
		c1.2,3.7,4.3,6.7,8.1,7.6c3,0.4,6.3,0.4,8.9-1.5C672.2,348.9,674.3,344.7,673.8,340.6z M660.4,344.9c-2.6-1.5-2.3-6,0.5-7.1
		c2.4-1.4,5.9,0.8,5.6,3.7C666.9,344.6,662.8,346.8,660.4,344.9z"/>
	<path id="path52" class="st1" d="M724.4,346.6c1.6,0,3.2-0.1,4.7,0c0.1,0.2,0.3,0.7,0.4,1c-0.7,0-1.4,0.1-2.1,0.1
		c0,1.6,0,3.2,0,4.8c-0.3,0-1,0-1.3,0.1c0-1.6,0-3.3,0-4.9c-0.6,0-1.1,0-1.7,0C724.5,347.4,724.5,346.8,724.4,346.6z"/>
	<path id="path54" class="st1" d="M730,346.5c0.6,0,1.2,0,1.8,0.1c0.4,1.5,0.7,2.9,1.1,4.4c0.3-1.5,0.7-3,1.1-4.5c0.6,0,1.1,0,1.7,0
		c0,2,0,4,0,6c-0.3,0-0.9,0-1.1,0c0-1.6,0-3.2,0-4.8c-0.2,1.6-0.6,3.2-1.1,4.8c-0.4,0-0.9,0-1.3,0c-0.2-1.6-0.5-3.1-0.9-4.7
		c-0.1,1.6-0.1,3.1-0.1,4.7c-0.3,0-0.9,0-1.2,0C730,350.5,730,348.5,730,346.5z"/>
</g>
</svg>
