<?xml version="1.0" encoding="utf-8"?>
<!-- Generator: Adobe Illustrator 19.0.0, SVG Export Plug-In . SVG Version: 6.00 Build 0)  -->
<svg version="1.1" id="Layer_1" xmlns="http://www.w3.org/2000/svg" xmlns:xlink="http://www.w3.org/1999/xlink" x="0px" y="0px"
	 viewBox="0 0 500 500" style="enable-background:new 0 0 500 500;" xml:space="preserve">
<style type="text/css">
	.st0{fill:#FFFFFF;}
	.st1{fill:#EB1D39;}
	.st2{fill:#005891;}
</style>
<g id="XMLID_1_">
	<path id="XMLID_12_" class="st0" d="M343.8,296.5c-51.8,51.8-135.9,51.8-187.6,0c-51.8-51.8-51.8-135.9,0-187.6
		C208,57,292.1,57,343.8,108.9C395.7,160.7,395.7,244.8,343.8,296.5"/>
	<path id="XMLID_11_" class="st1" d="M323.8,104.2c-20.6-15.5-46.2-24.7-73.8-24.7c-68,0.1-123.1,55.2-123.1,123.1
		c0,27.4,9,52.6,24,73C233.7,251.7,299.1,186.7,323.8,104.2"/>
	<path id="XMLID_10_" class="st2" d="M353.3,135.7c2.5,8.1,3.8,16.6,3.8,25.4c0,28.6-14.1,53.7-35.4,69.4
		c-37.2,27.4-91.4,27.4-166.1,51c22.6,27,56.5,44.2,94.4,44.2c68,0,123.1-55.1,123.1-123.1C373.1,178,365.9,155.1,353.3,135.7"/>
	<path class="st2" d="M171,415.4c0.3,0,0.8,0,1.1,0c5.8,0,11.1-2.2,15.2-6.2c4-4.1,6.3-9.7,6.3-15.8c0-12.7-9.7-22.6-22.2-22.6
		c-10.2,0-18.7,6.7-21.3,16.6c-0.4,1.6-0.9,6-0.9,10.3V429c0,0.5,0.4,1,1,1h5.6c0.5,0,1.1-0.4,1.1-1v-19.8l0.3,0.3
		C159.9,412.1,165,415,171,415.4 M171.4,378.3c8,0,14.2,6.5,14.2,15c0,8.4-5.9,14.8-13.8,14.8c-4,0-7.6-1.4-10.4-4
		c-2.8-2.6-4.4-6.4-4.4-10.6C157.1,385.1,163.5,378.3,171.4,378.3"/>
	<path class="st2" d="M243.5,392.2L243.5,392.2c0-0.5-0.1-1.2-0.2-2c-0.2-1.3-0.4-2.6-0.9-3.9c-3.1-9.6-11.1-15.7-20.7-15.7
		c-1,0-2,0.1-2.9,0.2c-12.2,1.5-20.5,12.7-18.9,25.2c1.4,11.4,10.7,19.2,21.8,19.2c0.9,0,1.9-0.1,2.9-0.2c6-0.8,11.1-3.3,15.1-8.1
		c0.2-0.3,0.3-0.7,0.3-1c0-0.2-0.2-0.5-0.5-0.8c-0.7-0.4-2.9-1.6-4.3-2.2c-0.4-0.2-0.7-0.3-0.9-0.4c-0.4-0.2-0.7-0.3-0.9-0.3
		c-0.3,0-0.7,0.1-0.9,0.5c-2.5,2.9-5.7,4.5-9,4.9c-0.7,0.1-1.3,0.1-1.9,0.1c-6,0-12-3.9-13.6-9.4v-0.1l0.1-0.1
		c0.3-0.1,3.1-1.4,7.2-1.4c0.5,0,1,0,1.5,0.1c1.2,0.1,2.4,0.2,3.6,0.4c2.3,0.3,4.7,0.7,7.5,0.7c1.7,0,3.4-0.1,5.1-0.3
		c6.8-1.3,9.5-3.3,9.5-3.3C243.6,393.8,243.5,393.2,243.5,392.2 M235.8,389.5c-1.1,0.3-2.6,0.7-4.6,0.9c-0.9,0.1-1.9,0.2-3.1,0.2
		c-2,0-4.1-0.1-6.2-0.3h-0.1c-2-0.1-3.7-0.3-5.5-0.3c-1.3,0-2.4,0.1-3.5,0.2c-3.3,0.4-5.9,1.4-5.9,1.4v-0.2
		c0.7-6.5,6.1-12.1,12.9-13.1c0.7-0.1,1.2-0.1,1.9-0.1c6.2,0,12.3,4.8,14.2,11.1l0.1,0.2H235.8z"/>
	<path class="st2" d="M271.4,415.4c0.3,0,0.8,0,1.1,0c5.8,0,11.1-2.2,15.2-6.2c4-4.1,6.2-9.7,6.2-15.8c0-12.7-9.7-22.6-22.2-22.6
		c-10.2,0-18.7,6.7-21.3,16.6c-0.4,1.6-0.9,6-0.9,10.3V429c0,0.5,0.4,1,1,1h5.6c0.5,0,1.1-0.4,1.1-1v-19.8l0.3,0.3
		C260.3,412.1,265.3,415,271.4,415.4 M271.7,378.3c8,0,14.3,6.5,14.3,15c0,8.4-6,14.8-13.9,14.8c-3.9,0-7.6-1.4-10.4-4
		c-2.8-2.6-4.4-6.4-4.4-10.6C257.5,385.1,263.8,378.3,271.7,378.3"/>
	<path id="XMLID_3_" class="st2" d="M299.3,408.3c4.9,4.5,10.2,7,17.1,7h0.2c11.9-0.1,17.2-6.5,17.2-13c0-8.8-8.4-11.2-10.9-11.8
		c-0.9-0.2-1.6-0.3-2.6-0.5c-2.1-0.4-4.3-0.8-6.2-1.4c-1.3-0.3-5.8-1.9-5.8-5.2c0-3.7,4-5.7,7.9-5.7c3.3,0,5.9,0.5,9.4,3.2
		c0.2,0.2,0.7,0.4,1.1,0.4c0.3,0,0.7-0.1,1-0.4c1-0.7,2.7-2.2,3.8-3.3c0.3-0.3,0.4-0.5,0.4-0.9c0-0.4-0.4-0.9-0.5-1
		c-4.6-3.6-9.1-5.1-15.3-5.1l0,0c-9,0-15.7,5.8-15.7,13.3c0,6,5,10.3,14,12.1l5.6,1.1c3.7,0.7,5.8,2.6,5.7,5.3
		c-0.1,2.7-3.4,5.5-8.7,5.5c-4.4,0-8.3-1.7-11.6-4.7l0,0c-0.2-0.2-0.5-0.4-0.9-0.4c-0.2,0-0.5,0.1-0.8,0.3c-0.3,0.3-4.1,3.3-4.5,3.7
		c-0.2,0.2-0.3,0.4-0.2,0.7C298.8,407.8,299.2,408.2,299.3,408.3"/>
	<path id="XMLID_2_" class="st2" d="M350,373.2c0-0.5-0.4-1-1-1h-5.7c-0.5,0-1,0.4-1,1v40.1c0,0.5,0.4,1,1,1h5.7c0.5,0,1-0.4,1-1
		V373.2z"/>
	<path id="XMLID_13_" class="st2" d="M346.2,357.9c-2.7,0-5,2.3-5,5.1s2.3,5.1,5,5.1c2.8,0,5.1-2.3,5.1-5.1S349.1,357.9,346.2,357.9
		"/>
</g>
</svg>
