<?xml version="1.0" encoding="utf-8"?>
<!-- Generator: Adobe Illustrator 19.0.0, SVG Export Plug-In . SVG Version: 6.00 Build 0)  -->
<svg version="1.1" id="Layer_1" xmlns="http://www.w3.org/2000/svg" xmlns:xlink="http://www.w3.org/1999/xlink" x="0px" y="0px"
	 viewBox="0 0 500 500" style="enable-background:new 0 0 500 500;" xml:space="preserve">
<style type="text/css">
	.st0{fill:#43B872;}
	.st1{fill:#FC202A;}
	.st2{fill:#0055A6;}
	.st3{fill:#7D2C64;}
	.st4{fill:#737578;}
</style>
<g id="XMLID_1_">
	<path id="XMLID_3_" class="st0" d="M353.7,113.5c-15.1-10.8-57.2-13-125.3-11.9l-1.1,129.6c65.9,1.1,114.5-4.3,125.3-10.8V114.6
		L353.7,113.5z"/>
	<path id="XMLID_4_" class="st1" d="M138.8,225.8c1.1,48.6,34.6,96.1,98.3,103.7c-8.6-10.8-14-32.4-14-93.9
		C196,236.6,167.9,233.4,138.8,225.8z"/>
	<path id="XMLID_5_" class="st2" d="M228.4,235.5l1.1,48.6c2.2,23.8,7.6,34.6,14,45.4c60.5-3.2,99.3-33.5,109.1-104.7
		C341.8,230.1,290,238.8,228.4,235.5z"/>
	<path id="XMLID_6_" class="st3" d="M162.5,223.7c-10.8-1.1-16.2-2.2-22.7-5.4l-1.1-77.8c18.4,37.8,25.9,61.6,24.8,83.2H162.5z"/>
	<path id="XMLID_7_" class="st3" d="M221.9,219.3c-16.2,7.6-34.6,8.6-50.8,7.6c6.5-42.1-35.6-85.3-33.5-110.1h1.1
		c28.1-1.1,77.8,20.5,84.2,43.2v59.4H221.9z"/>
	<path id="XMLID_18_" class="st4" d="M401.2,397.5v-23.8c0-6.5,4.3-9.7,9.7-9.7c5.4,0,9.7,4.3,9.7,9.7v23.8h11.9v-23.8
		c0-10.8-7.6-20.5-21.6-20.5c-14,0-21.6,9.7-21.6,20.5v23.8H401.2z M132.3,397.5v-23.8c0-6.5,4.3-9.7,9.7-9.7c5.4,0,9.7,4.3,9.7,9.7
		v23.8h11.9v-23.8c0-10.8-7.6-20.5-21.6-20.5c-14,0-21.6,9.7-21.6,20.5v23.8H132.3z M98.8,354.3v23.8c0,6.5-4.3,9.7-9.7,9.7
		c-5.4,0-9.7-4.3-9.7-9.7v-23.8H67.5v23.8c0,10.8,7.6,20.5,21.6,20.5c14,0,21.6-9.7,21.6-20.5v-23.8H98.8z M356.9,387.8
		c6.5,0,11.9-5.4,11.9-11.9c0-6.5-4.3-11.9-11.9-11.9c-6.5,0-11.9,5.4-11.9,11.9C345,382.4,349.3,387.8,356.9,387.8z M356.9,353.3
		c13,0,22.7,9.7,22.7,22.7c0,13-9.7,22.7-22.7,22.7c-13,0-23.8-9.7-23.8-22.7C333.2,363,342.9,353.3,356.9,353.3z M325.6,397.5
		h-11.9v-43.2h11.9V397.5z M274.8,384.6c3.2,3.2,7.6,4.3,11.9,4.3l5.4-3.2c0-6.5-21.6-4.3-21.6-18.4c0-8.6,8.6-14,16.2-14
		c5.4,0,11.9,2.2,15.1,4.3l-5.4,8.6l-8.6-3.2l-5.4,3.2c0,5.4,21.6,3.2,21.6,18.4c0,8.6-8.6,13-17.3,13c-6.5,0-11.9-2.2-17.3-5.4
		l5.4-8.6V384.6z M259.7,397.5h-11.9v-43.2h11.9V397.5z M216.5,380.3l11.9-27h11.9l-20.5,43.2h-7.6l-20.5-43.2h11.9l11.9,27H216.5z
		 M184.1,397.5h-11.9v-43.2h11.9V397.5z"/>
</g>
</svg>
